<?xml version="1.0" encoding="utf-8"?>
<!-- Generator: Adobe Illustrator 21.0.0, SVG Export Plug-In . SVG Version: 6.00 Build 0)  -->
<svg version="1.1" id="Layer_1" xmlns="http://www.w3.org/2000/svg"  x="0px" y="0px"
	 viewBox="0 0 200 200" style="enable-background:new 0 0 200 200;" xml:space="preserve">
<style type="text/css">
	.st0{fill:#E02222;}
</style>
<g>
	<path d="M156.6,140.2c-2-1.6-4-2.9-5.9-4.6c-5-4.6-8.9-10.1-11-17c-0.7-2.4-1.1-4.8-1.2-7.3c-1.1,0.1-2.2,0.2-3.4,0.2
		c-17.9,0-32.4-14.5-32.4-32.4c0-12,6.5-22.5,16.2-28.1c-2.5-1.5-5.2-2.6-8.1-3.3c-0.5-0.1-1-0.1-1-1.1c0.3-7.3-6.4-12.6-12.6-10.1
		c-4.1,1.7-6.2,5.3-6.3,10.9c-0.3,0.1-0.6,0.2-0.9,0.3c-9.4,2.5-16.4,8.4-20.9,17.9c-3.8,8-5.4,16.5-6,25.4
		c-0.4,6.3-0.5,12.7-0.6,19.1c-0.1,4.7-1.2,9.1-3.1,13.2c-3.4,7.3-8.6,12.6-14.9,16.8c-0.7,0.5-1,1-0.9,1.9c0,2.1,0,4.2,0,6.3
		c0,0.9,0,1.9,0,2.8c38,0,75.8,0,113.6,0c0-3.3,0-6.5,0-9.7C157.3,140.9,156.9,140.5,156.6,140.2z"/>
	<path d="M99.2,169.6c9.2,0,16.6-7.4,16.6-16.6H82.6C82.6,162.2,90,169.6,99.2,169.6z"/>
	<circle class="st0" cx="136.9" cy="78.9" r="29.1"/>
</g>
</svg>
