<?xml version="1.0" encoding="utf-8"?>
<!-- Generator: Adobe Illustrator 21.0.0, SVG Export Plug-In . SVG Version: 6.00 Build 0)  -->
<svg version="1.1" id="Layer_1" xmlns="http://www.w3.org/2000/svg"  x="0px" y="0px"
	 viewBox="0 0 200 200" style="enable-background:new 0 0 200 200;" xml:space="preserve">
<style type="text/css">
	.st0{fill:#191919;}
</style>
<g>
	<path class="st0" d="M156.3,142.3c0-0.4-0.4-0.8-0.7-1.1c-2-1.6-4-2.9-5.9-4.6c-5-4.6-8.9-10.1-11-17c-1.3-4.1-1.4-8.4-1.4-12.7
		c0-10.8-0.6-21.5-3.5-32c-1.8-6.3-4.4-12-8.6-16.8c-4.3-4.9-9.5-7.9-15.4-9.4c-0.5-0.1-1-0.1-1-1.1c0.3-7.3-6.4-12.6-12.6-10.1
		c-4.1,1.7-6.2,5.3-6.3,10.9c-0.3,0.1-0.6,0.2-0.9,0.3c-9.4,2.5-16.4,8.4-20.9,17.9c-3.8,8-5.4,16.5-6,25.4
		c-0.4,6.3-0.5,12.7-0.6,19.1c-0.1,4.7-1.2,9.1-3.1,13.2c-3.4,7.3-8.6,12.6-14.9,16.8c-0.7,0.5-1,1-0.9,1.9c0,2.1,0,4.2,0,6.3
		c0,0.9,0,1.9,0,2.8c38,0,75.8,0,113.6,0C156.3,148.6,156.4,145.5,156.3,142.3z"/>
	<path class="st0" d="M83.1,156c0,9.2,7.4,16.6,16.6,16.6c9.2,0,16.6-7.4,16.6-16.6H83.1z"/>
</g>
</svg>
