<?xml version="1.0" encoding="utf-8"?>
<!-- Generator: Adobe Illustrator 21.0.0, SVG Export Plug-In . SVG Version: 6.00 Build 0)  -->
<svg version="1.1" id="Layer_1" xmlns="http://www.w3.org/2000/svg"  x="0px" y="0px"
	 viewBox="0 0 200 200" style="enable-background:new 0 0 200 200;" xml:space="preserve">
<polygon  points="156.1,112.7 43.8,112.7 51.3,45.2 144.8,45.4 "/>
<path  d="M44.2,114.3v36.8h111.5v-36.8H44.2z M120.5,143.3L120.5,143.3L120.5,143.3L56,143.3v-6.5h0.1v-13.6h6.5v13.6
	h4.1v-13.6h6.5v13.6h5.4v-13.6h6.5v13.6h5.3v-13.6h6.5v13.6h5.3v-13.6h6.5v13.6h5.3v-13.6h6.5V143.3z M139.2,142.9c-5,0-9-4-9-9
	s4-9,9-9s9,4,9,9S144.2,142.9,139.2,142.9z"/>
</svg>
