<?xml version="1.0" encoding="utf-8"?>
<!-- Generator: Adobe Illustrator 21.0.0, SVG Export Plug-In . SVG Version: 6.00 Build 0)  -->
<svg version="1.1" id="Layer_1" xmlns="http://www.w3.org/2000/svg"  x="0px" y="0px"
	 viewBox="0 0 200 200" style="enable-background:new 0 0 200 200;" xml:space="preserve">
<style type="text/css">
	.st0{fill:none;}
</style>
<g>
	<path class="st0" d="M100.9,78.9c-11.7-0.2-21.4,8-21.5,18.2c-0.1,10.1,9.2,18.5,20.9,18.6c11.8,0.1,21.3-8,21.5-18.3
		C121.9,87.4,112.5,79,100.9,78.9z M100.6,109.3c-6.6,0-12-5.3-12.1-12c0-6.5,5.4-12,11.8-12c6.8,0,12.2,5.3,12.2,11.9
		C112.6,103.9,107.3,109.3,100.6,109.3z"/>
	<g>
		<path class="st0" d="M100.9,78.9c-11.7-0.2-21.4,8-21.5,18.2c-0.1,10.1,9.2,18.5,20.9,18.6c11.8,0.1,21.3-8,21.5-18.3
			C121.9,87.4,112.5,79,100.9,78.9z"/>
		<path d="M147,95.4c-0.5-2.6-2.2-4.6-4.4-6.4c-6.6-5.3-13.7-10-21.9-13.3c-6.3-2.6-13-4.2-20-4.3c-2.5,0.2-5,0.4-7.5,0.7
			c-6.4,1-12.2,3.1-17.8,5.9c-6.5,3.3-12.3,7.3-17.7,11.8c-3.8,3.2-4.7,8.2-2.2,12.3c1,1.7,2.6,2.9,4.1,4.1
			c7,5.6,14.6,10.3,23.4,13.5c4.8,1.7,9.7,2.9,14.9,3.2c9,0.5,17.3-1.6,25.2-5.1c7.7-3.4,14.4-8,20.6-13.2
			C146.6,102.1,147.7,99,147,95.4z M100.3,115.7c-11.7-0.1-21.1-8.5-20.9-18.6c0.1-10.2,9.8-18.3,21.5-18.2
			c11.6,0.2,21,8.5,20.9,18.5C121.6,107.7,112.1,115.8,100.3,115.7z"/>
	</g>
	<path d="M100.4,85.3c-6.5,0-11.8,5.5-11.8,12c0,6.7,5.4,12,12.1,12c6.7,0,12-5.4,12-12.1C112.6,90.6,107.1,85.2,100.4,85.3z"/>
</g>
</svg>
