<?xml version="1.0" encoding="utf-8"?>
<!-- Generator: Adobe Illustrator 21.0.0, SVG Export Plug-In . SVG Version: 6.00 Build 0)  -->
<svg version="1.1" id="Layer_1" xmlns="http://www.w3.org/2000/svg"  x="0px" y="0px"
	 viewBox="0 0 200 200" style="enable-background:new 0 0 200 200;" xml:space="preserve">
<style type="text/css">
	.st0{fill:none;}
</style>
<g>
	
		<rect x="58.4" y="114.9" transform="matrix(0.7071 -0.7071 0.7071 0.7071 -62.0258 92.859)" class="st0" width="45.4" height="12.8"/>
	
		<rect x="115.7" y="98.7" transform="matrix(0.7071 -0.7071 0.7071 0.7071 -49.9479 121.8423)" class="st0" width="12.8" height="45"/>
	
		<rect x="73.4" y="54.5" transform="matrix(0.7071 -0.7071 0.7071 0.7071 -32.4611 79.578)" class="st0" width="12.8" height="48.9"/>
	
		<rect x="99.1" y="72.6" transform="matrix(0.7071 -0.7071 0.7071 0.7071 -19.7266 110.3605)" class="st0" width="48.6" height="12.8"/>
</g>
<g>
	<path class="st0" d="M85.7,55.2v-38L40.3,62.6h38C82.4,62.6,85.7,59.3,85.7,55.2z"/>
	<path d="M159.2,3.3H81c-2,0-3.9,0.8-5.3,2.2L27.3,53.9c-1.4,1.4-2.2,3.3-2.2,5.3v122.9c0,8.2,6.7,14.9,14.9,14.9h119.2
		c8.2,0,14.9-6.7,14.9-14.9V18.2C174.1,10,167.4,3.3,159.2,3.3z M39.3,62.9l45.4-45.4v38c0,4.1-3.3,7.4-7.4,7.4H39.3z M145,131.7
		H85.6v28.1l-34.2-34.2c-0.7-0.7-0.7-1.7,0-2.4L85.6,89v27.6H145V131.7z"/>
</g>
</svg>
