<?xml version="1.0" encoding="utf-8"?>
<!-- Generator: Adobe Illustrator 21.0.0, SVG Export Plug-In . SVG Version: 6.00 Build 0)  -->
<svg version="1.1" id="Layer_1" xmlns="http://www.w3.org/2000/svg"  x="0px" y="0px"
	 viewBox="0 0 200 200" style="enable-background:new 0 0 200 200;" xml:space="preserve">
<style type="text/css">
	.st0{fill:#E8E8E8;}
	.st1{fill:#474747;}
</style>
<g>
	<path class="st0" d="M100.2,28.2c-40.1,0-72.5,32.5-72.5,72.5c0,40.1,32.5,72.5,72.5,72.5c40.1,0,72.5-32.5,72.5-72.5
		S140.2,28.2,100.2,28.2z"/>
</g>
<path class="st1" d="M72.9,130.2c-0.1-2.9-0.2-5.7-0.3-8.6c0-1.1-0.2-3,0-3.5c0-0.5,1.2-1.4,2.2-2.6c7.1-7.8,14.2-15.6,21.3-23.4
	c4.2-4.6,8.4-9.2,12.6-13.8c0.2-0.2,0.3-0.3,0.4-0.5c3.9,3.8,7.7,7.4,11.8,11.4c-0.2,0.1-0.2,0.3-0.4,0.5
	c-9.7,10.8-19.5,21.6-29.2,32.4c-2.2,2.4-4.3,4.8-6.5,7.1c-0.2,0.2-0.5,0.4-0.8,0.5c-3.6,0.2-7.2,0.2-10.8,0.4
	C73.2,130.2,73.1,130.2,72.9,130.2z"/>
<path class="st1" d="M112.2,74.4c1.6-1.8,3.2-3.7,4.8-5.4c1.1-1.1,2.7-1.1,3.8-0.1c2.7,2.6,5.5,5.3,8.2,7.9c1,1,1,2.8,0,4
	c-0.6,0.8-1.3,1.4-2,2.2c-1,1.1-1.9,2.1-2.8,3.1C120.2,82.1,116.2,78.3,112.2,74.4z"/>
</svg>
