<?xml version="1.0" encoding="utf-8"?>
<!-- Generator: Adobe Illustrator 21.0.0, SVG Export Plug-In . SVG Version: 6.00 Build 0)  -->
<svg version="1.1" id="Layer_1" xmlns="http://www.w3.org/2000/svg"  x="0px" y="0px"
	 viewBox="0 0 200 200" style="enable-background:new 0 0 200 200;" xml:space="preserve">
<style type="text/css">
	.st0{fill:none;stroke-width:7;stroke-miterlimit:10;}
</style>
<g>
	<path class="st0" d="M100.3,56.5h32v-4.7c0-3.6-2.9-6.5-6.5-6.5H78.2c-3.5,0-6.4,2.8-6.5,6.3v86.9h0v5.3c0,3.6,2.9,6.5,6.5,6.5
		h15.7V63C93.8,59.4,96.8,56.5,100.3,56.5z"/>
	<path class="st0" d="M71.7,51.6v-0.4c0-3.6,2.9-6.5,6.5-6.5h32v-4.7c0-3.6-2.9-6.5-6.5-6.5H56c-3.6,0-6.5,2.9-6.5,6.5v92
		c0,3.6,2.9,6.5,6.5,6.5h15.7V51.8C71.7,51.8,71.7,51.7,71.7,51.6z"/>
	<path class="st0" d="M71.7,51.6c0,0.1,0,0.1,0,0.2v86.7h0V51.6z"/>
	<path class="st0" d="M148,56.7h-47.7c-3.6,0-6.5,2.9-6.5,6.5v92c0,3.6,2.9,6.5,6.5,6.5H148c3.6,0,6.5-2.9,6.5-6.5v-92
		C154.5,59.6,151.6,56.7,148,56.7z"/>
</g>
</svg>
