<?xml version="1.0" encoding="utf-8"?>
<!-- Generator: Adobe Illustrator 21.0.0, SVG Export Plug-In . SVG Version: 6.00 Build 0)  -->
<svg version="1.1" id="Layer_1" xmlns="http://www.w3.org/2000/svg"  x="0px" y="0px"
	 viewBox="0 0 200 200" style="enable-background:new 0 0 200 200;" xml:space="preserve">
<g>
	<path d="M101.2,42.2c13,0,25.9,0,38.9,0c3.2,0,5.8,2,6.5,5.1c0.9,3.8-2.1,7.6-6.1,7.8c-0.6,0-1.1,0-1.7,0c-0.5,0-0.7,0.2-0.8,0.7
		c-0.1,2.8-0.2,5.6-0.5,8.4c-0.9,7.8-3.1,15.2-8.6,21.2c-2.9,3.2-6.5,5.5-10.4,7.3c-0.9,0.4-1.8,0.9-2.6,1.6
		c-1.5,1.4-1.4,3.2,0.1,4.5c0.6,0.5,1.3,0.9,2,1.2c9.1,3.6,14.7,10.3,17.5,19.5c1.8,5.6,2.3,11.3,2.5,17.2c0,1.2,0,1.3,1.2,1.2
		c2.7-0.1,4.9,0.7,6.4,3c1.4,2.1,1.4,4.3,0.2,6.5c-1.2,2.3-3.3,3.4-5.8,3.4c-8,0-16,0-24,0c-17.9,0-35.8,0-53.7,0
		c-3.4,0-6-2-6.7-5.2c-0.8-3.9,2.1-7.6,6.1-7.8c0.8,0,1.8,0.2,2.2-0.2c0.4-0.4,0.2-1.4,0.2-2.2c0.3-5.7,0.9-11.3,2.7-16.7
		c2.9-8.8,8.4-15.2,17.2-18.7c0.8-0.3,1.7-0.9,2.3-1.5c1.3-1.2,1.3-2.9,0.1-4.1c-0.8-0.8-1.8-1.4-2.8-1.8
		c-5.2-2.3-9.6-5.6-12.8-10.3c-2.7-3.9-4.3-8.3-5.3-13c-0.9-4.4-1.3-8.9-1.3-13.4c0-0.7-0.2-0.9-0.9-0.9c-1.9,0.1-3.7-0.2-5.2-1.4
		c-2.2-1.7-3.1-4.6-2.2-7.2c0.9-2.6,3.4-4.3,6.2-4.4c7.4,0,14.9,0,22.3,0C90,42.2,95.6,42.2,101.2,42.2
		C101.2,42.2,101.2,42.2,101.2,42.2z M101.2,55.1c-9.4,0-18.8,0-28.2,0c-0.6,0-1.1-0.1-1.1,0.8c0.1,5.1,0.5,10.1,2,14.9
		c1.9,6.4,5.7,11.3,11.8,14.3c1.6,0.8,3.2,1.5,4.7,2.6c4.4,3.2,5.8,8.7,3.6,13.3c-1.5,3.2-4.1,5.1-7.3,6.4
		c-4.4,1.7-7.9,4.6-10.2,8.7c-3.7,6.6-4.5,13.8-4.5,21.2c0,0.2,0.4,0.6,0.7,0.6c1,0.1,1.9,0,2.9,0c0.6,0,0.9-0.2,1.1-0.7
		c2.2-4.4,5-8.3,8.4-11.9c3-3.2,6.2-6.1,10.3-7.9c1.9-0.9,4-1.4,6.1-0.6c1.5,0.6,2.9,1.2,4.3,1.9c8.3,4.2,14.7,10.4,19.4,18.4
		c0.3,0.5,0.6,0.8,1.3,0.8c1.1-0.1,2.2,0,3.3,0c0.6,0,0.7-0.2,0.7-0.7c0-5.8-0.6-11.5-2.6-16.9c-1.9-5.3-5.2-9.5-10.3-12
		c-1.5-0.8-3.2-1.3-4.6-2.2c-5.9-3.5-7.3-10.8-3.2-16.1c1.5-1.9,3.5-3.3,5.8-4.2c6.1-2.6,10.2-7,12.4-13.3c1.8-5.2,2.4-10.6,2.5-16
		c0-1.2,0-1.2-1.2-1.2C119.8,55.1,110.5,55.1,101.2,55.1z"/>
	<path d="M79,68.4c2.5,0.1,5,0.2,7.5,0.3c6.1,0.4,11.9,2,17.8,3.2c5.4,1.1,10.8,1.4,16.3,0.5c0.4-0.1,0.8-0.1,1.4-0.2
		c-0.2,0.4-0.3,0.7-0.4,1c-1.8,3.6-4.6,6-8.3,7.5c-4.2,1.7-7.5,4.4-9.6,8.5c-0.5,1-0.9,2.1-1.2,3.1c-0.2,0.7-0.6,1.2-1.4,1.2
		c-0.8,0-1.1-0.5-1.3-1.2c-1.6-5.5-5.3-9.3-10.5-11.4c-5.6-2.3-8.7-6.5-10.3-12.1C78.9,68.7,78.9,68.7,79,68.4z"/>
	<path d="M101.1,98.7c1.1,0,2.1,1,2.1,2.1c0,1.1-1,2.1-2.1,2.1c-1.1,0-2.2-1-2.1-2.2C99,99.7,100,98.7,101.1,98.7z"/>
	<path d="M103.2,109.6c0,1.1-1.1,2.1-2.1,2.1c-1.1,0-2.1-1.1-2.1-2.2c0-1.1,1.1-2.1,2.2-2C102.2,107.5,103.2,108.5,103.2,109.6z"/>
</g>
</svg>
