<?xml version="1.0" encoding="utf-8"?>
<!-- Generator: Adobe Illustrator 21.0.0, SVG Export Plug-In . SVG Version: 6.00 Build 0)  -->
<svg version="1.1" id="Layer_1" xmlns="http://www.w3.org/2000/svg"  x="0px" y="0px"
	 viewBox="0 0 200 200" style="enable-background:new 0 0 200 200;" xml:space="preserve">
<g>
	<path d="M137.3,58.1c-19.7-18.5-45.2-22.4-71.1-3.5c-3.9-4.9-4.4-6.7-8.5-11.7c-2.4,11.1-5.3,22.5-7.5,32.4
		c9.6,0,20.5-0.4,31.3-0.4c-2.9-4-5.3-7.3-7.7-10.7c16.5-11.2,34-13.6,49.7-3.2c16,10.5,23.1,30.1,17.5,48.4
		c-5.7,18.7-21.9,30.8-41.2,30.8c-19.2,0-35.3-12-41.2-30.8c-1.7-5.6-1.2-10.5-2.7-10.8c-0.4-0.1-5.1-0.5-9.3-0.1
		c0.3,24.7,15.7,44.3,40,50.7c23.7,6.3,48.9-4.7,60.7-26.5C158.8,101.4,154.6,74.6,137.3,58.1z"/>
	<polygon points="94.5,66.9 94.5,103.6 94.7,103.6 124.6,119.6 128.8,111.7 103.4,98.2 103.4,66.9 	"/>
</g>
</svg>
