<?xml version="1.0" encoding="utf-8"?>
<!-- Generator: Adobe Illustrator 21.0.0, SVG Export Plug-In . SVG Version: 6.00 Build 0)  -->
<svg version="1.1" id="Layer_1" xmlns="http://www.w3.org/2000/svg"  x="0px" y="0px"
	 viewBox="0 0 200 200" style="enable-background:new 0 0 200 200;" xml:space="preserve">
<style type="text/css">
	.st0{fill:none;stroke:#000000;stroke-width:8;stroke-miterlimit:10;}
</style>
<g>
	<path d="M161.1,164.9c-45.5,43.1-93.5,24.4-119.5,0c0-0.6,0-1.1,0-1.7c0-5.4,0-10.9,0-16.3c0-1,0.2-2.1,0.6-3
		c4.9-10.8,12.1-19.4,21.2-25.9c4.6-3.3,9.4-5.8,14.6-7.6c1-0.4,1.2,0,1.4,1c2.1,10.2,38.2,13.1,43.9-0.2c0.2-0.9,0.4-1.1,1.2-0.8
		c11.6,4.1,21.4,11.4,29,21.9c2.5,3.4,4.5,7.3,6.6,11c0.4,0.7,0.9,1.6,0.9,2.4C161.2,152.1,161.1,158.4,161.1,164.9z"/>
	<path d="M131.3,74.4c0,18.4-13.4,33.4-29.9,33.3c-16.5,0-29.9-15-29.8-33.4c0-18.5,13.4-33.4,30-33.3C117.9,41,131.3,56,131.3,74.4
		z"/>
</g>
<circle class="st0" cx="100.4" cy="99.6" r="90.4"/>
</svg>
