<?xml version="1.0" encoding="utf-8"?>
<!-- Generator: Adobe Illustrator 21.0.0, SVG Export Plug-In . SVG Version: 6.00 Build 0)  -->
<svg version="1.1" id="Layer_1" xmlns="http://www.w3.org/2000/svg"  x="0px" y="0px"
	 viewBox="0 0 200 200" style="enable-background:new 0 0 200 200;" xml:space="preserve">
<style type="text/css">
	.st0{fill:#E8E8E8;}
	.st1{fill:#474747;}
</style>
<g>
	<path class="st0" d="M100.2,28.2c-40.1,0-72.5,32.5-72.5,72.5c0,40.1,32.5,72.5,72.5,72.5c40.1,0,72.5-32.5,72.5-72.5
		S140.2,28.2,100.2,28.2z"/>
</g>
<g id="surface1">
	<path class="st1" d="M71.3,62l-2,25.5l25.5-2l-9.7-9.7c4.6-2.6,10-4,15.5-4c17.2,0,31.3,14.1,31.3,31.3v2.7l6.6,6.7
		c0.8-3.1,1.2-6.3,1.2-9.4c0-21.5-17.6-39.2-39.2-39.2c-7.8,0-15.1,2.3-21.2,6.2L71.3,62z M62.8,93.7c-0.8,3.1-1.2,6.3-1.2,9.4
		c0,21.5,17.6,39.2,39.2,39.2c7.8,0,15-2.4,21.1-6.4l8.3,8.3l2-25.5l-25.5,2l9.7,9.7c-4.6,2.6-10,4-15.5,4
		c-17.2,0-31.3-14.1-31.3-31.3v-2.7L62.8,93.7z"/>
</g>
</svg>
