<?xml version="1.0" encoding="utf-8"?>
<!-- Generator: Adobe Illustrator 21.0.0, SVG Export Plug-In . SVG Version: 6.00 Build 0)  -->
<svg version="1.1" id="Layer_1" xmlns="http://www.w3.org/2000/svg"  x="0px" y="0px"
	 viewBox="0 0 200 200" style="enable-background:new 0 0 200 200;" xml:space="preserve">
<style type="text/css">
	.st0{fill:#E8E8E8;}
	.st1{fill:#3366FF;}
</style>
<g>
	<path class="st0" d="M99.1,29.2c-40.1,0-72.5,32.5-72.5,72.5c0,40.1,32.5,72.5,72.5,72.5c40.1,0,72.5-32.5,72.5-72.5
		S139.1,29.2,99.1,29.2z"/>
</g>
<g>
	<path class="st1" d="M124.4,72.6c2.9-3.7,3.3-5,6.4-8.8c1.8,8.3,4,16.9,5.6,24.3c-7.2,0-15.4-0.3-23.5-0.3c2.2-3,4-5.5,5.8-8
		c-12.4-8.4-25.5-10.2-37.3-2.4c-12,7.9-17.3,22.6-13.1,36.3c4.3,14,16.4,23.1,30.9,23.1c14.4,0,26.5-9,30.9-23.1
		c1.3-4.2,0.9-7.9,2-8.1c0.3-0.1,3.8-0.4,7-0.1c-0.2,18.5-11.8,33.2-30,38c-17.8,4.7-36.7-3.5-45.5-19.9c-8.6-15.9-5.5-36,7.5-48.4
		C85.9,61.3,105,58.4,124.4,72.6z"/>
</g>
</svg>
