<?xml version="1.0" encoding="utf-8"?>
<!-- Generator: Adobe Illustrator 21.0.0, SVG Export Plug-In . SVG Version: 6.00 Build 0)  -->
<svg version="1.1" id="Layer_1" xmlns="http://www.w3.org/2000/svg"  x="0px" y="0px"
	 viewBox="0 0 200 200" style="enable-background:new 0 0 200 200;" xml:space="preserve">
<g>
	<path d="M51.9,137.3c7.4-7.4,14.9-14.9,22.3-22.3c0.3-0.3,0.5-0.6,0.1-1c-7.9-9.9-10.5-21-7.8-33.4c1.5-6.7,4.6-12.6,9.3-17.7
		c6.4-6.9,14.3-11,23.6-12.2c5.1-0.7,10.2-0.4,15.2,1c8.9,2.4,16,7.4,21.4,14.8c4.5,6.1,6.9,13,7.3,20.6c0.3,4.4-0.2,8.7-1.5,12.9
		c-2.3,7.9-6.6,14.4-12.9,19.5c-5.9,4.8-12.8,7.7-20.4,8.5c-7.1,0.8-13.9-0.4-20.5-3.3c-3-1.4-5.9-3.2-8.4-5.3
		c-0.3-0.3-0.6-0.3-0.8,0.1c-0.1,0.2-0.3,0.3-0.4,0.4c-9.1,9.1-18.2,18.2-27.4,27.4c-0.2,0.2-0.4,0.3-0.5,0.5c-1.5-1.5-3-3-4.6-4.5
		C48,141.2,50,139.2,51.9,137.3z M104.6,121.8c18-0.1,32.4-14.7,32.3-32.8c-0.1-17.8-14.8-32.3-32.6-32.2C86.4,57,71.9,71.6,72,89.4
		C72.1,107.4,86.6,121.9,104.6,121.8z"/>
</g>
</svg>
