<?xml version="1.0" encoding="utf-8"?>
<!-- Generator: Adobe Illustrator 21.0.0, SVG Export Plug-In . SVG Version: 6.00 Build 0)  -->
<svg version="1.1" id="Layer_1" xmlns="http://www.w3.org/2000/svg"  x="0px" y="0px"
	 viewBox="0 0 200 200" style="enable-background:new 0 0 200 200;" xml:space="preserve">
<g>
	<path d="M155.2,98.4C121.1,113,87,127.6,52.7,142.3c0-0.4,0-0.7,0-1c0-10.7,0-21.5,0-32.2c0-0.8,0.2-1,1-1.1
		c5.2-0.7,10.4-1.4,15.6-2.1c4.7-0.6,9.4-1.2,14.1-1.9c4.1-0.5,8.2-1.1,12.3-1.6c4.7-0.6,9.4-1.2,14.1-1.9c4.1-0.5,8.2-1.1,12.3-1.6
		c1.1-0.1,2.1-0.3,3.2-0.4c0-0.1,0-0.1,0-0.2c-0.7-0.1-1.3-0.2-2-0.3c-5.4-0.7-10.8-1.4-16.3-2.2c-5.2-0.7-10.3-1.4-15.5-2
		c-4.7-0.6-9.5-1.3-14.2-1.9c-4.7-0.6-9.4-1.2-14.1-1.9c-3.3-0.4-6.6-0.9-9.9-1.3c-0.4-0.1-0.6-0.2-0.6-0.6c0-0.2,0-0.3,0-0.5
		c0-10.7,0-21.5,0-32.2c0-0.3,0-0.6,0-1C87,69,121.1,83.6,155.2,98.2C155.2,98.3,155.2,98.4,155.2,98.4z"/>
</g>
</svg>
