<?xml version="1.0" encoding="utf-8"?>
<!-- Generator: Adobe Illustrator 21.0.0, SVG Export Plug-In . SVG Version: 6.00 Build 0)  -->
<svg version="1.1" id="Layer_1" xmlns="http://www.w3.org/2000/svg"  x="0px" y="0px"
	 viewBox="0 0 200 200" style="enable-background:new 0 0 200 200;" xml:space="preserve">
<g>
	<path d="M137.6,150.4c-5.1,0-10.2,0-15.3,0c-1,0-1.4-0.2-1.4-1.3c0.1-4.1,0.1-8.1,0-12.2c0-1.1,0.4-1.3,1.4-1.3
		c9.4,0,18.9,0,28.3,0c10.7,0,19.5-7.2,21.6-17.8c2.2-11.3-4.7-22.5-15.9-25.3c-3.2-0.8-6.5-1.1-9.8-1.5c-1.4-0.2-2.1-0.7-2.4-2.2
		c-1.1-4.9-2-9.9-3.8-14.5c-5.5-13.6-15.6-22.2-29.8-25.8c-14.1-3.5-27-0.5-38.5,8.2c-5.2,3.9-9.1,9-12.4,14.6
		c-0.4,0.8-1,1.4-1.4,2.2c-0.8,2.1-2.5,2.7-4.6,3c-4.1,0.8-8.3,1.6-12.1,3.5c-10.6,5.4-17,17.4-15.4,29.1
		c1.6,12.8,10.1,22.4,22.7,25.5c1.9,0.5,4,0.7,6,0.7c7.1,0.1,14.2,0.1,21.4,0c1.1,0,1.5,0.3,1.5,1.5c-0.1,4-0.1,8,0,12.1
		c0,1-0.2,1.3-1.2,1.3c-7.5,0-15,0.1-22.5-0.1c-11-0.4-20.6-4.4-28.6-12c-9.8-9.3-14.6-20.8-13.9-34.3c0.7-14.5,7.4-26,19.3-34.3
		c5-3.5,10.4-5.7,16.4-6.9c0.6-0.1,1.3-0.7,1.6-1.3c8.2-13.6,19.7-22.7,35-26.9c14.6-4,28.9-2.8,42.4,4
		c15.6,7.8,25.7,20.4,30.7,37.1c0.4,1.2,0.9,1.7,2.1,1.9c6.5,1,12.1,3.8,17,8.2c6.1,5.4,9.8,12.2,11.1,20.2
		c3.3,20.5-8.2,38.3-27.3,43.2c-2.9,0.7-5.9,1-8.9,1.1C146.3,150.5,141.9,150.4,137.6,150.4z"/>
	<path d="M99.5,74.4c9.8,13,19.5,25.9,29.4,39.1c-0.8,0-1.2,0.1-1.7,0.1c-6.2,0-12.5,0-18.7,0c-1.3,0-1.6,0.4-1.6,1.6
		c0,16,0,32,0,48.1c0,0.6,0,1.1,0,1.8c-4.9,0-9.7,0-14.7,0c0-0.6,0-1.1,0-1.7c0-16,0-32,0-47.9c0-1.9,0-1.9-1.8-1.9
		c-6.2,0-12.3,0-18.5,0c-0.5,0-0.9,0-1.8,0C80,100.3,89.7,87.4,99.5,74.4z"/>
</g>
</svg>
