<?xml version="1.0" encoding="utf-8"?>
<!-- Generator: Adobe Illustrator 21.0.0, SVG Export Plug-In . SVG Version: 6.00 Build 0)  -->
<svg version="1.1" id="Layer_1" xmlns="http://www.w3.org/2000/svg"  x="0px" y="0px"
	 viewBox="0 0 200 200" style="enable-background:new 0 0 200 200;" xml:space="preserve">
<g>
	<path d="M145,133c-34.7,32.9-76.5,18-91.2,0c0-0.5,0-0.9,0-1.3c0-4.2,0-8.3,0-12.5c0-0.8,0.2-1.6,0.5-2.3
		c3.8-8.3,9.2-14.8,16.2-19.8c3.5-2.5,7.2-4.4,11.1-5.8c0.8-0.3,0.9,0,1,0.7c1.6,7.8,29.2,10,33.5-0.1c0.1-0.7,0.3-0.9,0.9-0.6
		c8.9,3.2,16.3,8.7,22.2,16.7c1.9,2.6,3.4,5.6,5.1,8.4c0.3,0.6,0.7,1.2,0.7,1.9C145,123.2,145,128,145,133z"/>
	<path d="M122.2,63.8c0,14.1-10.2,25.5-22.8,25.5c-12.6,0-22.8-11.4-22.8-25.5c0-14.1,10.2-25.5,22.9-25.5
		C112,38.3,122.2,49.8,122.2,63.8z"/>
</g>
</svg>
