<?xml version="1.0" encoding="utf-8"?>
<!-- Generator: Adobe Illustrator 21.0.0, SVG Export Plug-In . SVG Version: 6.00 Build 0)  -->
<svg version="1.1" id="Layer_1" xmlns="http://www.w3.org/2000/svg"  x="0px" y="0px"
	 viewBox="0 0 200 200" style="enable-background:new 0 0 200 200;" xml:space="preserve">
<style type="text/css">
	.st0{fill:none;}
	.st1{fill:#A3A3A3;}
</style>
<g>
	
		<rect x="58.4" y="114.9" transform="matrix(0.7071 -0.7071 0.7071 0.7071 -62.0085 92.876)" class="st0" width="45.4" height="12.8"/>
	
		<rect x="115.7" y="98.7" transform="matrix(0.7071 -0.7071 0.7071 0.7071 -49.9377 121.8285)" class="st0" width="12.8" height="45"/>
	
		<rect x="73.4" y="54.5" transform="matrix(0.7071 -0.7071 0.7071 0.7071 -32.461 79.5354)" class="st0" width="12.8" height="48.9"/>
	
		<rect x="99.1" y="72.6" transform="matrix(0.7071 -0.7071 0.7071 0.7071 -19.7007 110.4051)" class="st0" width="48.6" height="12.8"/>
	<path class="st1" d="M136.8,64.1c-20.3-20.3-53.1-20.3-73.3,0c-20.3,20.2-20.3,53.1,0,73.3s53.1,20.3,73.3,0
		C157.1,117.2,157.1,84.4,136.8,64.1z M123,117.9l-4.9,4.9L101,105.7L83.7,123l-4.9-4.9l17.3-17.3L77.5,82.2l4.9-4.9L101,95.9
		l18.4-18.4l4.9,4.9l-18.4,18.4L123,117.9z"/>
</g>
</svg>
