<?xml version="1.0" encoding="utf-8"?>
<!-- Generator: Adobe Illustrator 21.0.0, SVG Export Plug-In . SVG Version: 6.00 Build 0)  -->
<svg version="1.1" id="Layer_1" xmlns="http://www.w3.org/2000/svg"  x="0px" y="0px"
	 viewBox="0 0 200 200" style="enable-background:new 0 0 200 200;" xml:space="preserve">
<style type="text/css">
	.st0-x{fill:none;}
	.st1-x{fill:#E02222;}
</style>
<g>
	
		<rect x="58.4" y="114.9" transform="matrix(0.7071 -0.7071 0.7071 0.7071 -62.0392 92.8759)" class="st0-x" width="45.4" height="12.8"/>
	
		<rect x="115.7" y="98.7" transform="matrix(0.7071 -0.7071 0.7071 0.7071 -49.9347 121.85)" class="st0-x" width="12.8" height="45"/>
	
		<rect x="73.4" y="54.5" transform="matrix(0.7071 -0.7071 0.7071 0.7071 -32.4235 79.574)" class="st0-x" width="12.8" height="48.9"/>
	
		<rect x="99.1" y="72.6" transform="matrix(0.7071 -0.7071 0.7071 0.7071 -19.7635 110.3876)" class="st0-x" width="48.6" height="12.8"/>
	<path class="st1-x" d="M168.4,32.6C130.7-5.1,69.7-5.1,32,32.6C-5.7,70.2-5.7,131.3,32,169c37.7,37.7,98.7,37.7,136.4,0
		C206,131.3,206,70.2,168.4,32.6z M142.6,132.6l-9.1,9.1l-31.8-31.8l-32.1,32.1l-9.1-9.1l32.1-32.1L58,66.2l9.1-9.1l34.6,34.6
		L136,57.4l9.1,9.1l-34.3,34.3L142.6,132.6z"/>
</g>
</svg>
